<?xml version="1.0" standalone="no"?><!DOCTYPE svg PUBLIC "-//W3C//DTD SVG 1.1//EN" "http://www.w3.org/Graphics/SVG/1.1/DTD/svg11.dtd"><svg class="icon" width="200px" height="200.00px" viewBox="0 0 1024 1024" version="1.1" xmlns="http://www.w3.org/2000/svg"><path fill="#D63B30" d="M106.666667 256a128 128 0 1 1 256 0 128 128 0 0 1-256 0zM372.16 580.842667L512 674.069333l139.84-93.226666 47.338667 70.997333-163.52 109.013333a42.666667 42.666667 0 0 1-47.317334 0l-163.498666-109.013333 47.317333-70.997333z"  /><path fill="#D63B30" d="M85.333333 576a149.333333 149.333333 0 1 1 298.666667 0v277.333333a42.666667 42.666667 0 0 1-42.666667 42.666667H128a42.666667 42.666667 0 0 1-42.666667-42.666667V576zM917.333333 256a128 128 0 1 0-256 0 128 128 0 0 0 256 0zM938.666667 576a149.333333 149.333333 0 1 0-298.666667 0v277.333333a42.666667 42.666667 0 0 0 42.666667 42.666667h213.333333a42.666667 42.666667 0 0 0 42.666667-42.666667V576z"  /></svg>