<?xml version="1.0" standalone="no"?><!DOCTYPE svg PUBLIC "-//W3C//DTD SVG 1.1//EN" "http://www.w3.org/Graphics/SVG/1.1/DTD/svg11.dtd"><svg class="icon" width="200px" height="200.00px" viewBox="0 0 1024 1024" version="1.1" xmlns="http://www.w3.org/2000/svg"><path fill="#D63B30" d="M298.666667 298.666667c0-117.333333 96-213.333333 213.333333-213.333334s213.333333 96 213.333333 213.333334-96 213.333333-213.333333 213.333333-213.333333-96-213.333333-213.333333zM512 512c-211.2 0-384 172.8-384 384 0 23.466667 19.2 42.666667 42.666667 42.666667h682.666666c23.466667 0 42.666667-19.2 42.666667-42.666667 0-211.2-172.8-384-384-384z m93.866667 307.2l-64 64c-17.066667 17.066667-42.666667 17.066667-59.733334 0l-64-64c-10.666667-10.666667-14.933333-27.733333-10.666666-42.666667l64-192c6.4-17.066667 21.333333-29.866667 40.533333-29.866666 19.2 0 34.133333 12.8 40.533333 29.866666l64 192c4.266667 14.933333 0 32-10.666666 42.666667z"  /></svg>