<?xml version="1.0" standalone="no"?><!DOCTYPE svg PUBLIC "-//W3C//DTD SVG 1.1//EN" "http://www.w3.org/Graphics/SVG/1.1/DTD/svg11.dtd"><svg class="icon" width="200px" height="200.00px" viewBox="0 0 1024 1024" version="1.1" xmlns="http://www.w3.org/2000/svg"><path fill="#D63B30" d="M512 137.926531c-150.465306 0-271.673469 121.208163-271.673469 271.673469s121.208163 271.673469 271.673469 271.673469 271.673469-121.208163 271.673469-271.673469-121.208163-271.673469-271.673469-271.673469z m0 376.163265c-58.514286 0-104.489796-45.97551-104.489796-104.489796s45.97551-104.489796 104.489796-104.489796 104.489796 45.97551 104.489796 104.489796-45.97551 104.489796-104.489796 104.489796z"  /><path fill="#D63B30" d="M229.877551 545.436735c-2.089796 2.089796-2.089796 4.179592-4.179592 6.269387l-125.387755 217.338776c-8.359184 12.538776-8.359184 29.257143 0 43.885714 8.359184 12.538776 22.987755 20.897959 37.616327 18.808164l123.297959-8.359184 54.334694 110.759184c6.269388 14.628571 20.897959 22.987755 35.52653 22.987755s29.257143-8.359184 37.616327-20.89796L512 723.069388l123.297959 213.159183c8.359184 12.538776 22.987755 20.897959 37.616327 20.89796s29.257143-10.44898 35.52653-22.987755l54.334694-110.759184 123.297959 8.359184c14.628571 0 29.257143-6.269388 37.616327-18.808164 8.359184-12.538776 8.359184-29.257143 0-43.885714l-125.387755-217.338776c-2.089796-2.089796-2.089796-4.179592-4.179592-6.269387-50.155102 104.489796-158.82449 177.632653-282.122449 177.632653-125.387755 0-231.967347-73.142857-282.122449-177.632653z"  /></svg>