<?xml version="1.0" standalone="no"?><!DOCTYPE svg PUBLIC "-//W3C//DTD SVG 1.1//EN" "http://www.w3.org/Graphics/SVG/1.1/DTD/svg11.dtd"><svg class="icon" width="200px" height="200.00px" viewBox="0 0 1024 1024" version="1.1" xmlns="http://www.w3.org/2000/svg"><path fill="#D63B30" d="M487.850667 198.485333l-2.261334-2.005333c-99.392-88.96-251.733333-81.792-342.336 16.064-89.258667 96.384-86.378667 246.058667 6.506667 338.922667l332.053333 332.053333a42.666667 42.666667 0 0 0 60.330667 0L778.666667 647.04l-160-160-45.248 45.226667a147.2 147.2 0 0 1-208.170667 0l-1.493333-1.493334a147.2 147.2 0 0 1 0-208.170666l124.096-124.096zM838.997333 586.666667l35.2-35.2c92.885333-92.885333 95.786667-242.56 6.528-338.922667a244.16 244.16 0 0 0-209.792-76.48L424.106667 382.933333a61.866667 61.866667 0 0 0 0 87.488l1.493333 1.493334a61.866667 61.866667 0 0 0 87.488 0l75.434667-75.413334a42.666667 42.666667 0 0 1 60.330666 0l190.165334 190.186667z"  /></svg>